<svg xmlns="http://www.w3.org/2000/svg" version="1.1" xmlns:xlink="http://www.w3.org/1999/xlink" xmlns:svgjs="http://svgjs.dev/svgjs" width="1000" height="750" viewBox="0 0 1000 750"><rect width="1000" height="750" fill="#000000"></rect><g transform="matrix(0.834,0,0,0.834,82.49454545454546,115.4193570850203)"><svg viewBox="0 0 396 247" data-background-color="#c8c8c8" preserveAspectRatio="xMidYMid meet" height="623" width="1000" xmlns="http://www.w3.org/2000/svg" xmlns:xlink="http://www.w3.org/1999/xlink"><g id="tight-bounds" transform="matrix(1,0,0,1,0.2400000000000091,-0.09999999999999432)"><svg viewBox="0 0 395.52 247.2" height="247.2" width="395.52"><g><svg></svg></g><g><svg viewBox="0 0 395.52 247.2" height="247.2" width="395.52"><g transform="matrix(1,0,0,1,75.54432,88.4555879806139)"><svg viewBox="0 0 244.43135999999998 70.2888240387722" height="70.2888240387722" width="244.43135999999998"><g><svg viewBox="0 0 244.43135999999998 70.2888240387722" height="70.2888240387722" width="244.43135999999998"><g><svg viewBox="0 0 244.43135999999998 70.2888240387722" height="70.2888240387722" width="244.43135999999998"><g><svg viewBox="0 0 244.43135999999998 70.2888240387722" height="70.2888240387722" width="244.43135999999998"><g id="textblocktransform"><svg viewBox="0 0 244.43135999999998 70.2888240387722" height="70.2888240387722" width="244.43135999999998" id="textblock"><g><svg viewBox="0 0 244.43135999999998 70.2888240387722" height="70.2888240387722" width="244.43135999999998"><g transform="matrix(1,0,0,1,0,0)"><svg width="244.43135999999998" viewBox="3.700000047683716 -35 123.80000305175781 35.599998474121094" height="70.2888240387722" data-palette-color="#000000"><path d="M37.95 0L28.3 0 13.85-16.7 13.85 0 3.7 0 3.7-34.4 13.35-34.4 27.8-17.45 27.8-34.4 37.95-34.4 37.95 0ZM62.65-35Q67.6-35 71.55-33.5 75.5-32 77.82-29.08 80.15-26.15 80.15-21.95L80.15-21.95 69.6-21.95Q69.6-24.1 67.7-25.43 65.8-26.75 63.1-26.75L63.1-26.75Q59.2-26.75 57.2-24.68 55.2-22.6 55.2-18.8L55.2-18.8 55.2-15.6Q55.2-11.8 57.2-9.73 59.2-7.65 63.1-7.65L63.1-7.65Q65.8-7.65 67.7-8.93 69.6-10.2 69.6-12.2L69.6-12.2 61.8-12.2 61.8-19.2 80.15-19.2 80.15 0 74.45 0 73.35-3.4Q68.65 0.6 61.05 0.6L61.05 0.6Q52.5 0.6 48.2-3.88 43.9-8.35 43.9-17.2L43.9-17.2Q43.9-25.95 48.77-30.48 53.65-35 62.65-35L62.65-35ZM127.5 0L116.55 0 116.55-12.4Q116.55-14.7 116.72-17.13 116.9-19.55 117.1-21.2 117.3-22.85 117.35-23.3L117.35-23.3 117.15-23.3 110.8 0 102.15 0 95.75-23.25 95.55-23.25Q95.6-22.8 95.82-21.18 96.05-19.55 96.25-17.13 96.45-14.7 96.45-12.4L96.45-12.4 96.45 0 86.3 0 86.3-34.4 101.9-34.4 107.1-14.55 107.3-14.55 112.45-34.4 127.5-34.4 127.5 0Z" opacity="1" transform="matrix(1,0,0,1,0,0)" fill="#ffffff" class="wordmark-text-0" data-fill-palette-color="primary" id="text-0"></path></svg></g></svg></g></svg></g></svg></g></svg></g></svg></g></svg></g><path d="M189.536 82.456L189.536 25.589 385.558 25.589 385.558 221.611 189.536 221.611 189.536 164.744 195.874 164.744 195.874 215.273 379.219 215.273 379.219 31.927 195.874 31.927 195.874 82.456Z" fill="#ffffff" stroke="transparent" data-fill-palette-color="primary"></path></svg></g><defs></defs></svg><rect width="395.52" height="247.2" fill="none" stroke="none" visibility="hidden"></rect></g></svg></g></svg>